<mxfile host="app.diagrams.net" agent="Mozilla/5.0 (Windows NT 10.0; Win64; x64) AppleWebKit/537.36 (KHTML, like Gecko) Chrome/126.0.0.0 Safari/537.36 OPR/112.0.0.0" version="24.7.7">
  <diagram id="R2lEEEUBdFMjLlhIrx00" name="Page-1">
    <mxGraphModel dx="1009" dy="539" grid="1" gridSize="10" guides="1" tooltips="1" connect="1" arrows="1" fold="1" page="1" pageScale="1" pageWidth="850" pageHeight="1100" math="0" shadow="0" extFonts="Permanent Marker^https://fonts.googleapis.com/css?family=Permanent+Marker">
      <root>
        <mxCell id="0" />
        <mxCell id="1" parent="0" />
        <mxCell id="OU6niLAJPOAs1gR0Tfi5-23" style="edgeStyle=orthogonalEdgeStyle;rounded=0;orthogonalLoop=1;jettySize=auto;html=1;endArrow=none;endFill=0;" parent="1" source="OU6niLAJPOAs1gR0Tfi5-3" target="OU6niLAJPOAs1gR0Tfi5-22" edge="1">
          <mxGeometry relative="1" as="geometry" />
        </mxCell>
        <mxCell id="OU6niLAJPOAs1gR0Tfi5-32" style="edgeStyle=orthogonalEdgeStyle;rounded=0;orthogonalLoop=1;jettySize=auto;html=1;endArrow=none;endFill=0;" parent="1" source="OU6niLAJPOAs1gR0Tfi5-3" target="OU6niLAJPOAs1gR0Tfi5-31" edge="1">
          <mxGeometry relative="1" as="geometry" />
        </mxCell>
        <mxCell id="OU6niLAJPOAs1gR0Tfi5-3" value="Order" style="whiteSpace=wrap;html=1;align=center;" parent="1" vertex="1">
          <mxGeometry x="960" y="510" width="100" height="40" as="geometry" />
        </mxCell>
        <mxCell id="OU6niLAJPOAs1gR0Tfi5-17" style="edgeStyle=orthogonalEdgeStyle;rounded=0;orthogonalLoop=1;jettySize=auto;html=1;endArrow=none;endFill=0;" parent="1" source="OU6niLAJPOAs1gR0Tfi5-4" target="OU6niLAJPOAs1gR0Tfi5-16" edge="1">
          <mxGeometry relative="1" as="geometry" />
        </mxCell>
        <mxCell id="OU6niLAJPOAs1gR0Tfi5-4" value="product" style="whiteSpace=wrap;html=1;align=center;" parent="1" vertex="1">
          <mxGeometry x="510" y="510" width="100" height="40" as="geometry" />
        </mxCell>
        <mxCell id="OU6niLAJPOAs1gR0Tfi5-29" style="edgeStyle=orthogonalEdgeStyle;rounded=0;orthogonalLoop=1;jettySize=auto;html=1;endArrow=none;endFill=0;" parent="1" source="OU6niLAJPOAs1gR0Tfi5-5" target="OU6niLAJPOAs1gR0Tfi5-28" edge="1">
          <mxGeometry relative="1" as="geometry" />
        </mxCell>
        <mxCell id="OU6niLAJPOAs1gR0Tfi5-5" value="Client" style="whiteSpace=wrap;html=1;align=center;" parent="1" vertex="1">
          <mxGeometry x="960" y="830" width="100" height="40" as="geometry" />
        </mxCell>
        <mxCell id="OU6niLAJPOAs1gR0Tfi5-27" style="edgeStyle=orthogonalEdgeStyle;rounded=0;orthogonalLoop=1;jettySize=auto;html=1;endArrow=none;endFill=0;" parent="1" source="OU6niLAJPOAs1gR0Tfi5-6" target="OU6niLAJPOAs1gR0Tfi5-25" edge="1">
          <mxGeometry relative="1" as="geometry" />
        </mxCell>
        <mxCell id="OU6niLAJPOAs1gR0Tfi5-6" value="Employee" style="whiteSpace=wrap;html=1;align=center;" parent="1" vertex="1">
          <mxGeometry x="960" y="220" width="100" height="40" as="geometry" />
        </mxCell>
        <mxCell id="OU6niLAJPOAs1gR0Tfi5-7" value="Direction" style="whiteSpace=wrap;html=1;align=center;" parent="1" vertex="1">
          <mxGeometry x="1430" y="510" width="100" height="40" as="geometry" />
        </mxCell>
        <mxCell id="OU6niLAJPOAs1gR0Tfi5-8" value="category" style="whiteSpace=wrap;html=1;align=center;" parent="1" vertex="1">
          <mxGeometry x="150" y="250" width="100" height="40" as="geometry" />
        </mxCell>
        <mxCell id="OU6niLAJPOAs1gR0Tfi5-20" style="edgeStyle=orthogonalEdgeStyle;rounded=0;orthogonalLoop=1;jettySize=auto;html=1;endArrow=none;endFill=0;" parent="1" source="OU6niLAJPOAs1gR0Tfi5-9" target="OU6niLAJPOAs1gR0Tfi5-19" edge="1">
          <mxGeometry relative="1" as="geometry" />
        </mxCell>
        <mxCell id="OU6niLAJPOAs1gR0Tfi5-9" value="subcategory" style="shape=ext;margin=3;double=1;whiteSpace=wrap;html=1;align=center;" parent="1" vertex="1">
          <mxGeometry x="150" y="510" width="100" height="40" as="geometry" />
        </mxCell>
        <mxCell id="OU6niLAJPOAs1gR0Tfi5-18" style="edgeStyle=orthogonalEdgeStyle;rounded=0;orthogonalLoop=1;jettySize=auto;html=1;endArrow=none;endFill=0;" parent="1" source="OU6niLAJPOAs1gR0Tfi5-16" target="OU6niLAJPOAs1gR0Tfi5-9" edge="1">
          <mxGeometry relative="1" as="geometry" />
        </mxCell>
        <mxCell id="OU6niLAJPOAs1gR0Tfi5-16" value="belongs to" style="shape=rhombus;perimeter=rhombusPerimeter;whiteSpace=wrap;html=1;align=center;" parent="1" vertex="1">
          <mxGeometry x="320" y="500" width="120" height="60" as="geometry" />
        </mxCell>
        <mxCell id="OU6niLAJPOAs1gR0Tfi5-21" style="edgeStyle=orthogonalEdgeStyle;rounded=0;orthogonalLoop=1;jettySize=auto;html=1;endArrow=none;endFill=0;" parent="1" source="OU6niLAJPOAs1gR0Tfi5-19" target="OU6niLAJPOAs1gR0Tfi5-8" edge="1">
          <mxGeometry relative="1" as="geometry" />
        </mxCell>
        <mxCell id="OU6niLAJPOAs1gR0Tfi5-19" value="belongs to" style="shape=rhombus;perimeter=rhombusPerimeter;whiteSpace=wrap;html=1;align=center;" parent="1" vertex="1">
          <mxGeometry x="140" y="360" width="120" height="60" as="geometry" />
        </mxCell>
        <mxCell id="OU6niLAJPOAs1gR0Tfi5-24" style="edgeStyle=orthogonalEdgeStyle;rounded=0;orthogonalLoop=1;jettySize=auto;html=1;endArrow=none;endFill=0;" parent="1" source="OU6niLAJPOAs1gR0Tfi5-22" target="OU6niLAJPOAs1gR0Tfi5-4" edge="1">
          <mxGeometry relative="1" as="geometry" />
        </mxCell>
        <mxCell id="OU6niLAJPOAs1gR0Tfi5-22" value="contains" style="shape=rhombus;perimeter=rhombusPerimeter;whiteSpace=wrap;html=1;align=center;" parent="1" vertex="1">
          <mxGeometry x="700" y="500" width="120" height="60" as="geometry" />
        </mxCell>
        <mxCell id="OU6niLAJPOAs1gR0Tfi5-26" style="edgeStyle=orthogonalEdgeStyle;rounded=0;orthogonalLoop=1;jettySize=auto;html=1;endArrow=none;endFill=0;" parent="1" source="OU6niLAJPOAs1gR0Tfi5-25" target="OU6niLAJPOAs1gR0Tfi5-3" edge="1">
          <mxGeometry relative="1" as="geometry" />
        </mxCell>
        <mxCell id="OU6niLAJPOAs1gR0Tfi5-25" value="Process" style="shape=rhombus;perimeter=rhombusPerimeter;whiteSpace=wrap;html=1;align=center;" parent="1" vertex="1">
          <mxGeometry x="950" y="310" width="120" height="60" as="geometry" />
        </mxCell>
        <mxCell id="OU6niLAJPOAs1gR0Tfi5-30" style="edgeStyle=orthogonalEdgeStyle;rounded=0;orthogonalLoop=1;jettySize=auto;html=1;endArrow=none;endFill=0;" parent="1" source="OU6niLAJPOAs1gR0Tfi5-28" target="OU6niLAJPOAs1gR0Tfi5-3" edge="1">
          <mxGeometry relative="1" as="geometry" />
        </mxCell>
        <mxCell id="OU6niLAJPOAs1gR0Tfi5-28" value="requests" style="shape=rhombus;perimeter=rhombusPerimeter;whiteSpace=wrap;html=1;align=center;" parent="1" vertex="1">
          <mxGeometry x="950" y="690" width="120" height="60" as="geometry" />
        </mxCell>
        <mxCell id="OU6niLAJPOAs1gR0Tfi5-33" style="edgeStyle=orthogonalEdgeStyle;rounded=0;orthogonalLoop=1;jettySize=auto;html=1;endArrow=none;endFill=0;" parent="1" source="OU6niLAJPOAs1gR0Tfi5-31" target="OU6niLAJPOAs1gR0Tfi5-7" edge="1">
          <mxGeometry relative="1" as="geometry" />
        </mxCell>
        <mxCell id="OU6niLAJPOAs1gR0Tfi5-31" value="sended to" style="shape=rhombus;perimeter=rhombusPerimeter;whiteSpace=wrap;html=1;align=center;" parent="1" vertex="1">
          <mxGeometry x="1230" y="500" width="120" height="60" as="geometry" />
        </mxCell>
        <mxCell id="OU6niLAJPOAs1gR0Tfi5-35" value="id" style="ellipse;whiteSpace=wrap;html=1;align=center;" parent="1" vertex="1">
          <mxGeometry x="1070" y="467.5" width="60" height="25" as="geometry" />
        </mxCell>
        <mxCell id="OU6niLAJPOAs1gR0Tfi5-37" value="units" style="ellipse;whiteSpace=wrap;html=1;align=center;" parent="1" vertex="1">
          <mxGeometry x="690" y="590" width="70" height="30" as="geometry" />
        </mxCell>
        <mxCell id="OU6niLAJPOAs1gR0Tfi5-38" value="type" style="ellipse;whiteSpace=wrap;html=1;align=center;" parent="1" vertex="1">
          <mxGeometry x="760" y="590" width="70" height="30" as="geometry" />
        </mxCell>
        <mxCell id="OU6niLAJPOAs1gR0Tfi5-39" value="priority" style="ellipse;whiteSpace=wrap;html=1;align=center;" parent="1" vertex="1">
          <mxGeometry x="1090" y="550" width="80" height="30" as="geometry" />
        </mxCell>
        <mxCell id="OU6niLAJPOAs1gR0Tfi5-40" value="delivery date" style="ellipse;whiteSpace=wrap;html=1;align=center;" parent="1" vertex="1">
          <mxGeometry x="1060" y="590" width="80" height="30" as="geometry" />
        </mxCell>
        <mxCell id="OU6niLAJPOAs1gR0Tfi5-41" value="order date" style="ellipse;whiteSpace=wrap;html=1;align=center;" parent="1" vertex="1">
          <mxGeometry x="880" y="560" width="80" height="30" as="geometry" />
        </mxCell>
        <mxCell id="OU6niLAJPOAs1gR0Tfi5-43" value="discount" style="ellipse;whiteSpace=wrap;html=1;align=center;" parent="1" vertex="1">
          <mxGeometry x="870" y="480" width="70" height="20" as="geometry" />
        </mxCell>
        <mxCell id="OU6niLAJPOAs1gR0Tfi5-44" value="freight" style="ellipse;whiteSpace=wrap;html=1;align=center;" parent="1" vertex="1">
          <mxGeometry x="900" y="450" width="60" height="20" as="geometry" />
        </mxCell>
        <mxCell id="OU6niLAJPOAs1gR0Tfi5-45" value="margin" style="ellipse;whiteSpace=wrap;html=1;align=center;" parent="1" vertex="1">
          <mxGeometry x="1045" y="440" width="70" height="20" as="geometry" />
        </mxCell>
        <mxCell id="OU6niLAJPOAs1gR0Tfi5-48" value="" style="endArrow=none;html=1;rounded=0;" parent="1" source="OU6niLAJPOAs1gR0Tfi5-3" target="OU6niLAJPOAs1gR0Tfi5-35" edge="1">
          <mxGeometry relative="1" as="geometry">
            <mxPoint x="860" y="450" as="sourcePoint" />
            <mxPoint x="1020" y="450" as="targetPoint" />
          </mxGeometry>
        </mxCell>
        <mxCell id="OU6niLAJPOAs1gR0Tfi5-49" value="" style="endArrow=none;html=1;rounded=0;" parent="1" source="OU6niLAJPOAs1gR0Tfi5-3" target="OU6niLAJPOAs1gR0Tfi5-45" edge="1">
          <mxGeometry relative="1" as="geometry">
            <mxPoint x="1057" y="520" as="sourcePoint" />
            <mxPoint x="1120" y="486" as="targetPoint" />
          </mxGeometry>
        </mxCell>
        <mxCell id="OU6niLAJPOAs1gR0Tfi5-50" value="" style="endArrow=none;html=1;rounded=0;" parent="1" source="OU6niLAJPOAs1gR0Tfi5-41" target="OU6niLAJPOAs1gR0Tfi5-3" edge="1">
          <mxGeometry relative="1" as="geometry">
            <mxPoint x="1067" y="530" as="sourcePoint" />
            <mxPoint x="1130" y="496" as="targetPoint" />
          </mxGeometry>
        </mxCell>
        <mxCell id="OU6niLAJPOAs1gR0Tfi5-51" value="" style="endArrow=none;html=1;rounded=0;" parent="1" source="OU6niLAJPOAs1gR0Tfi5-3" target="OU6niLAJPOAs1gR0Tfi5-39" edge="1">
          <mxGeometry relative="1" as="geometry">
            <mxPoint x="1077" y="540" as="sourcePoint" />
            <mxPoint x="1140" y="506" as="targetPoint" />
          </mxGeometry>
        </mxCell>
        <mxCell id="OU6niLAJPOAs1gR0Tfi5-52" value="" style="endArrow=none;html=1;rounded=0;" parent="1" source="OU6niLAJPOAs1gR0Tfi5-3" target="OU6niLAJPOAs1gR0Tfi5-40" edge="1">
          <mxGeometry relative="1" as="geometry">
            <mxPoint x="1087" y="550" as="sourcePoint" />
            <mxPoint x="1150" y="516" as="targetPoint" />
          </mxGeometry>
        </mxCell>
        <mxCell id="OU6niLAJPOAs1gR0Tfi5-53" value="" style="endArrow=none;html=1;rounded=0;" parent="1" source="OU6niLAJPOAs1gR0Tfi5-22" target="OU6niLAJPOAs1gR0Tfi5-38" edge="1">
          <mxGeometry relative="1" as="geometry">
            <mxPoint x="1097" y="560" as="sourcePoint" />
            <mxPoint x="1160" y="526" as="targetPoint" />
          </mxGeometry>
        </mxCell>
        <mxCell id="OU6niLAJPOAs1gR0Tfi5-54" value="" style="endArrow=none;html=1;rounded=0;" parent="1" source="OU6niLAJPOAs1gR0Tfi5-22" target="OU6niLAJPOAs1gR0Tfi5-37" edge="1">
          <mxGeometry relative="1" as="geometry">
            <mxPoint x="1107" y="570" as="sourcePoint" />
            <mxPoint x="1170" y="536" as="targetPoint" />
          </mxGeometry>
        </mxCell>
        <mxCell id="OU6niLAJPOAs1gR0Tfi5-55" value="" style="endArrow=none;html=1;rounded=0;" parent="1" source="OU6niLAJPOAs1gR0Tfi5-3" target="OU6niLAJPOAs1gR0Tfi5-43" edge="1">
          <mxGeometry relative="1" as="geometry">
            <mxPoint x="1117" y="580" as="sourcePoint" />
            <mxPoint x="1180" y="546" as="targetPoint" />
          </mxGeometry>
        </mxCell>
        <mxCell id="OU6niLAJPOAs1gR0Tfi5-56" value="" style="endArrow=none;html=1;rounded=0;" parent="1" source="OU6niLAJPOAs1gR0Tfi5-3" target="OU6niLAJPOAs1gR0Tfi5-44" edge="1">
          <mxGeometry relative="1" as="geometry">
            <mxPoint x="1127" y="590" as="sourcePoint" />
            <mxPoint x="1190" y="556" as="targetPoint" />
          </mxGeometry>
        </mxCell>
        <mxCell id="OU6niLAJPOAs1gR0Tfi5-58" value="id" style="ellipse;whiteSpace=wrap;html=1;align=center;" parent="1" vertex="1">
          <mxGeometry x="1070" y="170" width="100" height="40" as="geometry" />
        </mxCell>
        <mxCell id="OU6niLAJPOAs1gR0Tfi5-59" value="" style="endArrow=none;html=1;rounded=0;" parent="1" source="OU6niLAJPOAs1gR0Tfi5-6" target="OU6niLAJPOAs1gR0Tfi5-58" edge="1">
          <mxGeometry relative="1" as="geometry">
            <mxPoint x="1100" y="280" as="sourcePoint" />
            <mxPoint x="1260" y="280" as="targetPoint" />
          </mxGeometry>
        </mxCell>
        <mxCell id="OU6niLAJPOAs1gR0Tfi5-60" value="" style="endArrow=none;html=1;rounded=0;" parent="1" source="OU6niLAJPOAs1gR0Tfi5-63" target="OU6niLAJPOAs1gR0Tfi5-6" edge="1">
          <mxGeometry relative="1" as="geometry">
            <mxPoint x="1070" y="245" as="sourcePoint" />
            <mxPoint x="1010" y="240" as="targetPoint" />
          </mxGeometry>
        </mxCell>
        <mxCell id="OU6niLAJPOAs1gR0Tfi5-61" value="" style="endArrow=none;html=1;rounded=0;" parent="1" source="OU6niLAJPOAs1gR0Tfi5-62" target="OU6niLAJPOAs1gR0Tfi5-6" edge="1">
          <mxGeometry relative="1" as="geometry">
            <mxPoint x="1080" y="255" as="sourcePoint" />
            <mxPoint x="1172" y="245" as="targetPoint" />
          </mxGeometry>
        </mxCell>
        <mxCell id="OU6niLAJPOAs1gR0Tfi5-62" value="name" style="ellipse;whiteSpace=wrap;html=1;align=center;" parent="1" vertex="1">
          <mxGeometry x="960" y="130" width="100" height="40" as="geometry" />
        </mxCell>
        <mxCell id="OU6niLAJPOAs1gR0Tfi5-63" value="email" style="ellipse;whiteSpace=wrap;html=1;align=center;" parent="1" vertex="1">
          <mxGeometry x="860" y="170" width="100" height="40" as="geometry" />
        </mxCell>
        <mxCell id="OU6niLAJPOAs1gR0Tfi5-65" value="id" style="ellipse;whiteSpace=wrap;html=1;align=center;" parent="1" vertex="1">
          <mxGeometry x="1090" y="820" width="100" height="40" as="geometry" />
        </mxCell>
        <mxCell id="OU6niLAJPOAs1gR0Tfi5-66" value="photo" style="ellipse;whiteSpace=wrap;html=1;align=center;" parent="1" vertex="1">
          <mxGeometry x="1070" y="880" width="100" height="40" as="geometry" />
        </mxCell>
        <mxCell id="OU6niLAJPOAs1gR0Tfi5-67" value="gender" style="ellipse;whiteSpace=wrap;html=1;align=center;" parent="1" vertex="1">
          <mxGeometry x="970" y="900" width="100" height="40" as="geometry" />
        </mxCell>
        <mxCell id="OU6niLAJPOAs1gR0Tfi5-68" value="age" style="ellipse;whiteSpace=wrap;html=1;align=center;" parent="1" vertex="1">
          <mxGeometry x="860" y="890" width="100" height="40" as="geometry" />
        </mxCell>
        <mxCell id="OU6niLAJPOAs1gR0Tfi5-69" value="name" style="ellipse;whiteSpace=wrap;html=1;align=center;" parent="1" vertex="1">
          <mxGeometry x="840" y="830" width="100" height="40" as="geometry" />
        </mxCell>
        <mxCell id="OU6niLAJPOAs1gR0Tfi5-70" value="" style="endArrow=none;html=1;rounded=0;" parent="1" source="OU6niLAJPOAs1gR0Tfi5-69" target="OU6niLAJPOAs1gR0Tfi5-5" edge="1">
          <mxGeometry relative="1" as="geometry">
            <mxPoint x="730" y="770" as="sourcePoint" />
            <mxPoint x="890" y="770" as="targetPoint" />
          </mxGeometry>
        </mxCell>
        <mxCell id="OU6niLAJPOAs1gR0Tfi5-71" value="" style="endArrow=none;html=1;rounded=0;" parent="1" source="OU6niLAJPOAs1gR0Tfi5-66" target="OU6niLAJPOAs1gR0Tfi5-5" edge="1">
          <mxGeometry relative="1" as="geometry">
            <mxPoint x="947" y="873" as="sourcePoint" />
            <mxPoint x="970" y="868" as="targetPoint" />
          </mxGeometry>
        </mxCell>
        <mxCell id="OU6niLAJPOAs1gR0Tfi5-72" value="" style="endArrow=none;html=1;rounded=0;" parent="1" source="OU6niLAJPOAs1gR0Tfi5-67" target="OU6niLAJPOAs1gR0Tfi5-5" edge="1">
          <mxGeometry relative="1" as="geometry">
            <mxPoint x="957" y="883" as="sourcePoint" />
            <mxPoint x="980" y="878" as="targetPoint" />
          </mxGeometry>
        </mxCell>
        <mxCell id="OU6niLAJPOAs1gR0Tfi5-73" value="" style="endArrow=none;html=1;rounded=0;" parent="1" source="OU6niLAJPOAs1gR0Tfi5-68" target="OU6niLAJPOAs1gR0Tfi5-5" edge="1">
          <mxGeometry relative="1" as="geometry">
            <mxPoint x="967" y="893" as="sourcePoint" />
            <mxPoint x="990" y="888" as="targetPoint" />
          </mxGeometry>
        </mxCell>
        <mxCell id="OU6niLAJPOAs1gR0Tfi5-74" value="" style="endArrow=none;html=1;rounded=0;" parent="1" source="OU6niLAJPOAs1gR0Tfi5-65" target="OU6niLAJPOAs1gR0Tfi5-5" edge="1">
          <mxGeometry relative="1" as="geometry">
            <mxPoint x="977" y="903" as="sourcePoint" />
            <mxPoint x="1000" y="898" as="targetPoint" />
          </mxGeometry>
        </mxCell>
        <mxCell id="OU6niLAJPOAs1gR0Tfi5-77" value="id" style="ellipse;whiteSpace=wrap;html=1;align=center;" parent="1" vertex="1">
          <mxGeometry x="1460" y="430" width="100" height="40" as="geometry" />
        </mxCell>
        <mxCell id="OU6niLAJPOAs1gR0Tfi5-78" value="" style="endArrow=none;html=1;rounded=0;" parent="1" source="OU6niLAJPOAs1gR0Tfi5-7" target="OU6niLAJPOAs1gR0Tfi5-77" edge="1">
          <mxGeometry relative="1" as="geometry">
            <mxPoint x="1630" y="490" as="sourcePoint" />
            <mxPoint x="1490" y="590" as="targetPoint" />
          </mxGeometry>
        </mxCell>
        <mxCell id="OU6niLAJPOAs1gR0Tfi5-79" value="country Flag" style="ellipse;whiteSpace=wrap;html=1;align=center;" parent="1" vertex="1">
          <mxGeometry x="1550" y="460" width="100" height="40" as="geometry" />
        </mxCell>
        <mxCell id="OU6niLAJPOAs1gR0Tfi5-80" value="" style="endArrow=none;html=1;rounded=0;" parent="1" source="OU6niLAJPOAs1gR0Tfi5-7" target="OU6niLAJPOAs1gR0Tfi5-79" edge="1">
          <mxGeometry relative="1" as="geometry">
            <mxPoint x="1640" y="500" as="sourcePoint" />
            <mxPoint x="1500" y="600" as="targetPoint" />
          </mxGeometry>
        </mxCell>
        <mxCell id="OU6niLAJPOAs1gR0Tfi5-81" value="region" style="ellipse;whiteSpace=wrap;html=1;align=center;" parent="1" vertex="1">
          <mxGeometry x="1580" y="520" width="100" height="40" as="geometry" />
        </mxCell>
        <mxCell id="OU6niLAJPOAs1gR0Tfi5-82" value="" style="endArrow=none;html=1;rounded=0;" parent="1" source="OU6niLAJPOAs1gR0Tfi5-7" target="OU6niLAJPOAs1gR0Tfi5-81" edge="1">
          <mxGeometry relative="1" as="geometry">
            <mxPoint x="1650" y="510" as="sourcePoint" />
            <mxPoint x="1510" y="610" as="targetPoint" />
          </mxGeometry>
        </mxCell>
        <mxCell id="OU6niLAJPOAs1gR0Tfi5-83" value="city" style="ellipse;whiteSpace=wrap;html=1;align=center;" parent="1" vertex="1">
          <mxGeometry x="1540" y="570" width="100" height="40" as="geometry" />
        </mxCell>
        <mxCell id="OU6niLAJPOAs1gR0Tfi5-84" value="" style="endArrow=none;html=1;rounded=0;" parent="1" source="OU6niLAJPOAs1gR0Tfi5-7" target="OU6niLAJPOAs1gR0Tfi5-83" edge="1">
          <mxGeometry relative="1" as="geometry">
            <mxPoint x="1660" y="520" as="sourcePoint" />
            <mxPoint x="1520" y="620" as="targetPoint" />
          </mxGeometry>
        </mxCell>
        <mxCell id="OU6niLAJPOAs1gR0Tfi5-85" value="latitude" style="ellipse;whiteSpace=wrap;html=1;align=center;" parent="1" vertex="1">
          <mxGeometry x="1440" y="600" width="100" height="40" as="geometry" />
        </mxCell>
        <mxCell id="OU6niLAJPOAs1gR0Tfi5-86" value="" style="endArrow=none;html=1;rounded=0;" parent="1" source="OU6niLAJPOAs1gR0Tfi5-7" target="OU6niLAJPOAs1gR0Tfi5-85" edge="1">
          <mxGeometry relative="1" as="geometry">
            <mxPoint x="1670" y="530" as="sourcePoint" />
            <mxPoint x="1530" y="630" as="targetPoint" />
          </mxGeometry>
        </mxCell>
        <mxCell id="OU6niLAJPOAs1gR0Tfi5-87" value="longitude" style="ellipse;whiteSpace=wrap;html=1;align=center;" parent="1" vertex="1">
          <mxGeometry x="1350" y="570" width="100" height="40" as="geometry" />
        </mxCell>
        <mxCell id="OU6niLAJPOAs1gR0Tfi5-88" value="" style="endArrow=none;html=1;rounded=0;" parent="1" source="OU6niLAJPOAs1gR0Tfi5-7" target="OU6niLAJPOAs1gR0Tfi5-87" edge="1">
          <mxGeometry relative="1" as="geometry">
            <mxPoint x="1680" y="540" as="sourcePoint" />
            <mxPoint x="1540" y="640" as="targetPoint" />
          </mxGeometry>
        </mxCell>
        <mxCell id="OU6niLAJPOAs1gR0Tfi5-89" value="id" style="ellipse;whiteSpace=wrap;html=1;align=center;" parent="1" vertex="1">
          <mxGeometry x="140" y="180" width="100" height="40" as="geometry" />
        </mxCell>
        <mxCell id="OU6niLAJPOAs1gR0Tfi5-90" value="name" style="ellipse;whiteSpace=wrap;html=1;align=center;" parent="1" vertex="1">
          <mxGeometry x="250" y="200" width="100" height="40" as="geometry" />
        </mxCell>
        <mxCell id="OU6niLAJPOAs1gR0Tfi5-91" value="" style="endArrow=none;html=1;rounded=0;" parent="1" source="OU6niLAJPOAs1gR0Tfi5-8" target="OU6niLAJPOAs1gR0Tfi5-90" edge="1">
          <mxGeometry relative="1" as="geometry">
            <mxPoint x="410" y="380" as="sourcePoint" />
            <mxPoint x="570" y="380" as="targetPoint" />
          </mxGeometry>
        </mxCell>
        <mxCell id="OU6niLAJPOAs1gR0Tfi5-92" value="" style="endArrow=none;html=1;rounded=0;" parent="1" source="OU6niLAJPOAs1gR0Tfi5-8" target="OU6niLAJPOAs1gR0Tfi5-89" edge="1">
          <mxGeometry relative="1" as="geometry">
            <mxPoint x="420" y="390" as="sourcePoint" />
            <mxPoint x="394" y="240" as="targetPoint" />
          </mxGeometry>
        </mxCell>
        <mxCell id="OU6niLAJPOAs1gR0Tfi5-93" value="id" style="ellipse;whiteSpace=wrap;html=1;align=center;" parent="1" vertex="1">
          <mxGeometry x="40" y="520" width="100" height="40" as="geometry" />
        </mxCell>
        <mxCell id="OU6niLAJPOAs1gR0Tfi5-94" value="nombre" style="ellipse;whiteSpace=wrap;html=1;align=center;" parent="1" vertex="1">
          <mxGeometry x="110" y="570" width="100" height="40" as="geometry" />
        </mxCell>
        <mxCell id="OU6niLAJPOAs1gR0Tfi5-95" value="" style="endArrow=none;html=1;rounded=0;" parent="1" source="OU6niLAJPOAs1gR0Tfi5-93" target="OU6niLAJPOAs1gR0Tfi5-9" edge="1">
          <mxGeometry relative="1" as="geometry">
            <mxPoint x="410" y="580" as="sourcePoint" />
            <mxPoint x="570" y="580" as="targetPoint" />
          </mxGeometry>
        </mxCell>
        <mxCell id="OU6niLAJPOAs1gR0Tfi5-96" value="" style="endArrow=none;html=1;rounded=0;" parent="1" source="OU6niLAJPOAs1gR0Tfi5-94" target="OU6niLAJPOAs1gR0Tfi5-9" edge="1">
          <mxGeometry relative="1" as="geometry">
            <mxPoint x="120" y="622" as="sourcePoint" />
            <mxPoint x="188" y="560" as="targetPoint" />
          </mxGeometry>
        </mxCell>
        <mxCell id="OU6niLAJPOAs1gR0Tfi5-98" value="id" style="ellipse;whiteSpace=wrap;html=1;align=center;" parent="1" vertex="1">
          <mxGeometry x="440" y="450" width="100" height="40" as="geometry" />
        </mxCell>
        <mxCell id="OU6niLAJPOAs1gR0Tfi5-99" value="cost" style="ellipse;whiteSpace=wrap;html=1;align=center;" parent="1" vertex="1">
          <mxGeometry x="560" y="440" width="100" height="40" as="geometry" />
        </mxCell>
        <mxCell id="OU6niLAJPOAs1gR0Tfi5-100" value="price" style="ellipse;whiteSpace=wrap;html=1;align=center;" parent="1" vertex="1">
          <mxGeometry x="550" y="570" width="100" height="40" as="geometry" />
        </mxCell>
        <mxCell id="OU6niLAJPOAs1gR0Tfi5-101" value="name" style="ellipse;whiteSpace=wrap;html=1;align=center;" parent="1" vertex="1">
          <mxGeometry x="440" y="570" width="100" height="40" as="geometry" />
        </mxCell>
        <mxCell id="OU6niLAJPOAs1gR0Tfi5-102" value="" style="endArrow=none;html=1;rounded=0;" parent="1" source="OU6niLAJPOAs1gR0Tfi5-98" target="OU6niLAJPOAs1gR0Tfi5-4" edge="1">
          <mxGeometry relative="1" as="geometry">
            <mxPoint x="410" y="480" as="sourcePoint" />
            <mxPoint x="570" y="480" as="targetPoint" />
          </mxGeometry>
        </mxCell>
        <mxCell id="OU6niLAJPOAs1gR0Tfi5-103" value="" style="endArrow=none;html=1;rounded=0;" parent="1" source="OU6niLAJPOAs1gR0Tfi5-4" target="OU6niLAJPOAs1gR0Tfi5-99" edge="1">
          <mxGeometry relative="1" as="geometry">
            <mxPoint x="420" y="490" as="sourcePoint" />
            <mxPoint x="580" y="490" as="targetPoint" />
          </mxGeometry>
        </mxCell>
        <mxCell id="OU6niLAJPOAs1gR0Tfi5-104" value="" style="endArrow=none;html=1;rounded=0;" parent="1" source="OU6niLAJPOAs1gR0Tfi5-101" target="OU6niLAJPOAs1gR0Tfi5-4" edge="1">
          <mxGeometry relative="1" as="geometry">
            <mxPoint x="430" y="500" as="sourcePoint" />
            <mxPoint x="590" y="500" as="targetPoint" />
          </mxGeometry>
        </mxCell>
        <mxCell id="OU6niLAJPOAs1gR0Tfi5-105" value="" style="endArrow=none;html=1;rounded=0;" parent="1" source="OU6niLAJPOAs1gR0Tfi5-100" target="OU6niLAJPOAs1gR0Tfi5-4" edge="1">
          <mxGeometry relative="1" as="geometry">
            <mxPoint x="440" y="510" as="sourcePoint" />
            <mxPoint x="600" y="510" as="targetPoint" />
          </mxGeometry>
        </mxCell>
        <mxCell id="uO4EUHUY-JXx1ohbB-Xs-1" value="satisfaction" style="ellipse;whiteSpace=wrap;html=1;align=center;" parent="1" vertex="1">
          <mxGeometry x="930" y="605" width="70" height="30" as="geometry" />
        </mxCell>
        <mxCell id="uO4EUHUY-JXx1ohbB-Xs-2" value="" style="endArrow=none;html=1;rounded=0;" parent="1" source="uO4EUHUY-JXx1ohbB-Xs-1" target="OU6niLAJPOAs1gR0Tfi5-3" edge="1">
          <mxGeometry relative="1" as="geometry">
            <mxPoint x="959" y="574" as="sourcePoint" />
            <mxPoint x="984" y="560" as="targetPoint" />
          </mxGeometry>
        </mxCell>
        <mxCell id="uO4EUHUY-JXx1ohbB-Xs-4" value="1,1" style="text;html=1;align=center;verticalAlign=middle;resizable=0;points=[];autosize=1;strokeColor=none;fillColor=none;" parent="1" vertex="1">
          <mxGeometry x="1060" y="498" width="40" height="30" as="geometry" />
        </mxCell>
        <mxCell id="uO4EUHUY-JXx1ohbB-Xs-5" value="0,N" style="text;html=1;align=center;verticalAlign=middle;resizable=0;points=[];autosize=1;strokeColor=none;fillColor=none;" parent="1" vertex="1">
          <mxGeometry x="1390" y="500" width="40" height="30" as="geometry" />
        </mxCell>
        <mxCell id="uO4EUHUY-JXx1ohbB-Xs-6" value="1:N" style="text;html=1;align=center;verticalAlign=middle;resizable=0;points=[];autosize=1;strokeColor=none;fillColor=none;" parent="1" vertex="1">
          <mxGeometry x="1270" y="470" width="40" height="30" as="geometry" />
        </mxCell>
        <mxCell id="uO4EUHUY-JXx1ohbB-Xs-7" value="1,1" style="text;html=1;align=center;verticalAlign=middle;resizable=0;points=[];autosize=1;strokeColor=none;fillColor=none;" parent="1" vertex="1">
          <mxGeometry x="970" y="480" width="40" height="30" as="geometry" />
        </mxCell>
        <mxCell id="uO4EUHUY-JXx1ohbB-Xs-8" value="0,N" style="text;html=1;align=center;verticalAlign=middle;resizable=0;points=[];autosize=1;strokeColor=none;fillColor=none;" parent="1" vertex="1">
          <mxGeometry x="970" y="260" width="40" height="30" as="geometry" />
        </mxCell>
        <mxCell id="uO4EUHUY-JXx1ohbB-Xs-9" value="1:N" style="text;html=1;align=center;verticalAlign=middle;resizable=0;points=[];autosize=1;strokeColor=none;fillColor=none;" parent="1" vertex="1">
          <mxGeometry x="910" y="325" width="40" height="30" as="geometry" />
        </mxCell>
        <mxCell id="uO4EUHUY-JXx1ohbB-Xs-10" value="1,N" style="text;html=1;align=center;verticalAlign=middle;resizable=0;points=[];autosize=1;strokeColor=none;fillColor=none;" parent="1" vertex="1">
          <mxGeometry x="920" y="500" width="40" height="30" as="geometry" />
        </mxCell>
        <mxCell id="uO4EUHUY-JXx1ohbB-Xs-11" value="0,N" style="text;html=1;align=center;verticalAlign=middle;resizable=0;points=[];autosize=1;strokeColor=none;fillColor=none;" parent="1" vertex="1">
          <mxGeometry x="610" y="498" width="40" height="30" as="geometry" />
        </mxCell>
        <mxCell id="uO4EUHUY-JXx1ohbB-Xs-12" value="N:N" style="text;html=1;align=center;verticalAlign=middle;resizable=0;points=[];autosize=1;strokeColor=none;fillColor=none;" parent="1" vertex="1">
          <mxGeometry x="740" y="467.5" width="40" height="30" as="geometry" />
        </mxCell>
        <mxCell id="uO4EUHUY-JXx1ohbB-Xs-13" value="0,N" style="text;html=1;align=center;verticalAlign=middle;resizable=0;points=[];autosize=1;strokeColor=none;fillColor=none;" parent="1" vertex="1">
          <mxGeometry x="250" y="500" width="40" height="30" as="geometry" />
        </mxCell>
        <mxCell id="uO4EUHUY-JXx1ohbB-Xs-14" value="1,1" style="text;html=1;align=center;verticalAlign=middle;resizable=0;points=[];autosize=1;strokeColor=none;fillColor=none;" parent="1" vertex="1">
          <mxGeometry x="470" y="500" width="40" height="30" as="geometry" />
        </mxCell>
        <mxCell id="uO4EUHUY-JXx1ohbB-Xs-15" value="0,N" style="text;html=1;align=center;verticalAlign=middle;resizable=0;points=[];autosize=1;strokeColor=none;fillColor=none;" parent="1" vertex="1">
          <mxGeometry x="150" y="288" width="40" height="30" as="geometry" />
        </mxCell>
        <mxCell id="uO4EUHUY-JXx1ohbB-Xs-17" value="1,1" style="text;html=1;align=center;verticalAlign=middle;resizable=0;points=[];autosize=1;strokeColor=none;fillColor=none;" parent="1" vertex="1">
          <mxGeometry x="160" y="475" width="40" height="30" as="geometry" />
        </mxCell>
        <mxCell id="uO4EUHUY-JXx1ohbB-Xs-18" value="1:N" style="text;html=1;align=center;verticalAlign=middle;resizable=0;points=[];autosize=1;strokeColor=none;fillColor=none;" parent="1" vertex="1">
          <mxGeometry x="100" y="375" width="40" height="30" as="geometry" />
        </mxCell>
        <mxCell id="uO4EUHUY-JXx1ohbB-Xs-19" value="1:N" style="text;html=1;align=center;verticalAlign=middle;resizable=0;points=[];autosize=1;strokeColor=none;fillColor=none;" parent="1" vertex="1">
          <mxGeometry x="360" y="467.5" width="40" height="30" as="geometry" />
        </mxCell>
        <mxCell id="uO4EUHUY-JXx1ohbB-Xs-20" value="0,N" style="text;html=1;align=center;verticalAlign=middle;resizable=0;points=[];autosize=1;strokeColor=none;fillColor=none;" parent="1" vertex="1">
          <mxGeometry x="1010" y="800" width="40" height="30" as="geometry" />
        </mxCell>
        <mxCell id="uO4EUHUY-JXx1ohbB-Xs-21" value="1,1" style="text;html=1;align=center;verticalAlign=middle;resizable=0;points=[];autosize=1;strokeColor=none;fillColor=none;" parent="1" vertex="1">
          <mxGeometry x="1010" y="550" width="40" height="30" as="geometry" />
        </mxCell>
        <mxCell id="uO4EUHUY-JXx1ohbB-Xs-22" value="1:N" style="text;html=1;align=center;verticalAlign=middle;resizable=0;points=[];autosize=1;strokeColor=none;fillColor=none;" parent="1" vertex="1">
          <mxGeometry x="1070" y="705" width="40" height="30" as="geometry" />
        </mxCell>
        <mxCell id="IYpp28ZdOycaFvyJs4IX-1" value="&lt;div&gt;&lt;span style=&quot;font-size: 18px;&quot;&gt;Integrantes:&lt;/span&gt;&lt;/div&gt;&lt;div&gt;&lt;span style=&quot;font-size: 18px;&quot;&gt;1. Henry Salvador Mauricio Mendoza 00183223&amp;nbsp;&lt;/span&gt;&lt;/div&gt;&lt;div&gt;&lt;span style=&quot;font-size: 18px;&quot;&gt;2. Jisya Alexander Rivas Marroquín 00211723&lt;/span&gt;&lt;/div&gt;&lt;div&gt;&lt;span style=&quot;font-size: 18px;&quot;&gt;3. Abraham Alejandro Flores Vásquez 00067323&lt;/span&gt;&lt;/div&gt;" style="text;html=1;align=center;verticalAlign=middle;resizable=0;points=[];autosize=1;strokeColor=none;fillColor=none;" vertex="1" parent="1">
          <mxGeometry x="395" y="188" width="410" height="100" as="geometry" />
        </mxCell>
      </root>
    </mxGraphModel>
  </diagram>
</mxfile>
